<?xml version="1.0" encoding="UTF-8" standalone="no"?>
<svg version="1.0" xmlns="http://www.w3.org/2000/svg" xmlns:svg="http://www.w3.org/2000/svg"
 width="1024px" height="500px" viewBox="0 0 1536 1024"
 preserveAspectRatio="xMidYMid meet">

   <defs>
      <linearGradient id="gearGradient" x1="0%" y1="0%" x2="100%" y2="100%">
         <stop offset="0%" style="stop-color:#0A2A82ff;stop-opacity:1" />
         <stop offset="100%" style="stop-color:#8A2BE2ff;stop-opacity:1" />
       </linearGradient>
      <linearGradient id="fondoGradient" x1="0%" y1="0%" x2="100%" y-2="100%">
         <stop offset="0%" style="stop-color:#00002aff;stop-opacity:1" />
         <stop offset="100%" style="stop-color:#1d0080ff;stop-opacity:1" />
      </linearGradient>
      <linearGradient id="letrasGradient" x-2="100%" y0="100%" x0="0%" y2="0%">
         <stop offset="0%" style="stop-color:#ffffff;stop-opacity:1" />
         <stop offset="50%" style="stop-color:#4affff;stop-opacity:1" />
         <stop offset="100%" style="stop-color:#00ffff;stop-opacity:1" />
      </linearGradient> 
   </defs>
  <g stroke="none" >
    <path id="path1" fill="url(#fondoGradient)"
       d="m 5 1024 v 0 H 768 1532 V 513 3 H 768 5 Z"/>
    <path id="path2" fill="url(#letrasGradient)"
       d="m 951 848 C 950 848 950 848 949 849 C 948 852 949 855 951 856 C 954 856 956 853 955 850 C 954 848 953 
       848 951 848 z M 983 848 C 981 848 979 850 980 852 C 980 854 981 855 982 856 C 985 856 987 853 986 850 C 
       985 849 984 848 983 848 z M 1275 848 C 1274 848 1273 848 1272 849 C 1271 852 1273 855 1275 856 C 1278 
       856 1280 853 1278 850 C 1277 848 1276 848 1275 848 z M 1318 848 C 1317 848 1317 848 1316 849 C 1315 852 
       1316 855 1319 856 C 1321 856 1323 853 1322 850 C 1321 848 1320 848 1318 848 z M 852 848 C 851 848 850 848 
       849 849 C 847 852 851 857 854 855 C 856 853 856 851 854 849 C 853 848 853 848 852 848 z M 1157 848 C 1155 
       848 1153 851 1155 854 C 1155 855 1157 856 1158 856 C 1160 855 1160 855 1160 852 C 1160 849 1160 848 1158 
       848 C 1158 848 1158 848 1157 848 z M 936 849 L 936 870 L 937 892 L 939 892 L 942 893 L 942 871 L 942 849 
       L 939 849 L 936 849 z M 971 849 C 966 849 964 851 964 857 C 964 860 963 861 962 861 C 960 861 960 861 960 
       863 C 960 865 960 866 962 866 C 963 866 963 867 963 879 L 963 892 L 966 892 L 969 893 L 969 879 L 969 866 
       L 972 866 C 974 866 975 865 975 863 C 975 861 974 861 972 861 C 969 861 969 860 969 858 C 969 856 970 854 
       973 854 C 974 854 975 853 975 851 C 975 849 974 849 971 849 z M 1185 849 L 1186 857 L 1186 864 L 1183 862 
       C 1179 859 1177 859 1173 861 C 1165 865 1163 882 1171 890 C 1175 894 1181 894 1184 890 L 1187 887 L 1186 
       890 C 1186 892 1187 892 1189 892 L 1192 893 L 1192 871 L 1192 849 L 1188 849 L 1185 849 z M 1260 849 L 
       1260 857 C 1260 865 1260 865 1258 863 C 1253 858 1245 860 1242 867 C 1240 872 1240 880 1242 885 C 1245 
       892 1252 895 1258 891 L 1260 889 L 1260 891 C 1260 892 1261 893 1263 893 L 1266 893 L 1266 871 L 1266 849 
       L 1263 849 L 1260 849 z M 1376 849 L 1376 870 C 1376 881 1375 891 1375 891 C 1375 892 1376 892 1378 892 
       L 1380 893 L 1380 871 L 1380 849 L 1378 849 L 1376 849 z M 830 850 C 825 850 820 852 818 856 C 815 864 
       818 871 826 873 C 835 875 837 877 837 881 C 837 884 834 887 830 887 C 825 887 824 886 822 883 C 820 879 
       816 878 816 882 C 816 883 816 886 818 887 C 826 898 845 892 843 878 C 842 873 839 870 832 868 C 825 866 
       822 864 822 861 C 822 858 826 856 830 856 C 833 856 836 858 836 861 C 836 861 838 862 839 862 C 841 862 
       842 861 842 860 C 842 857 839 853 836 851 C 834 850 832 850 830 850 z M 1069 853 C 1066 853 1066 853 1066 
       857 C 1066 860 1066 861 1065 861 C 1064 861 1063 862 1063 863 C 1063 865 1064 866 1065 866 C 1066 866 1066 
       868 1066 877 C 1067 890 1068 893 1074 893 C 1077 893 1077 892 1077 890 C 1077 888 1077 888 1075 888 C 
       1073 888 1072 886 1072 875 C 1072 866 1072 866 1075 866 C 1077 866 1077 865 1077 863 C 1077 861 1077 861 
       1075 861 C 1072 861 1072 860 1072 857 C 1072 853 1072 853 1069 853 z M 1333 853 C 1330 853 1330 853 1330 
       857 C 1330 860 1329 861 1328 861 C 1327 861 1327 862 1327 863 C 1327 865 1327 866 1328 866 C 1329 866 
       1330 868 1330 877 C 1330 890 1332 893 1337 893 C 1340 893 1341 892 1341 890 C 1341 889 1340 888 1339 887 
       C 1336 886 1336 885 1336 876 L 1336 866 L 1338 866 C 1340 866 1341 865 1341 863 C 1341 861 1340 861 1338 
       861 C 1336 861 1336 860 1336 857 C 1336 853 1336 853 1333 853 z M 874 860 C 873 860 872 860 870 862 C 867 
       864 866 864 867 862 C 867 861 867 861 864 861 L 861 861 L 861 877 L 861 893 L 864 893 L 867 893 L 867 881 
       C 867 868 868 866 873 866 C 877 866 877 867 877 880 L 877 893 L 880 893 L 883 893 L 883 881 C 883 868 884 
       866 889 866 C 892 866 893 869 893 881 L 893 893 L 896 893 L 899 893 L 899 881 C 899 874 899 868 898 866 
       C 896 860 887 858 884 863 C 882 865 882 865 881 864 C 881 863 880 862 878 861 C 877 860 875 860 874 860 z 
       M 1004 860 C 1003 860 1001 861 998 862 C 993 865 990 877 993 885 C 997 895 1012 895 1015 885 C 1016 882 
       1016 882 1013 882 C 1012 882 1010 882 1010 883 C 1010 884 1007 888 1005 888 C 1003 888 1001 887 1000 885 
       C 997 882 996 872 1000 868 C 1003 865 1007 865 1009 869 C 1010 871 1012 872 1014 872 C 1016 872 1016 872 
       1015 869 C 1014 865 1013 863 1009 861 C 1007 860 1006 860 1004 860 z M 1295 860 C 1292 860 1289 862 1287 
       865 C 1284 869 1283 880 1286 885 C 1289 892 1297 894 1301 889 L 1304 886 L 1304 891 C 1304 898 1297 902 
       1292 897 C 1289 895 1285 894 1285 896 C 1285 903 1297 907 1304 902 C 1309 899 1310 895 1310 876 L 1310 
       861 L 1307 861 C 1305 861 1304 861 1304 863 C 1304 864 1304 865 1303 864 C 1303 863 1301 862 1300 861 L 
       1300 861 C 1298 860 1297 860 1295 860 z M 919 860 C 918 860 918 860 917 860 C 916 861 914 862 913 863 L 
       911 865 L 911 863 C 911 861 910 861 908 861 L 905 861 L 905 881 L 906 902 L 908 902 L 911 903 L 911 896 
       L 911 889 L 914 891 C 915 892 918 893 920 893 C 927 893 931 887 931 877 C 931 870 929 865 926 863 C 925 
       861 922 860 919 860 z M 1151 861 L 1147 861 C 1144 861 1145 860 1139 879 L 1137 885 L 1135 877 C 1134 872 
       1132 867 1132 864 C 1131 861 1130 861 1128 861 C 1124 861 1124 859 1130 879 C 1134 892 1135 892 1137 892 
       C 1140 893 1140 893 1143 885 C 1144 881 1146 874 1148 869 L 1151 861 z M 849 861 L 849 877 L 849 893 L 852 
       893 L 854 893 L 854 877 L 854 861 L 852 861 L 849 861 z M 949 861 L 949 877 L 949 893 L 952 893 L 955 893 
       L 955 877 L 955 861 L 952 861 L 949 861 z M 980 861 L 980 877 L 980 893 L 983 893 L 986 893 L 986 877 L 
       986 861 L 983 861 L 980 861 z M 1082 861 L 1082 872 C 1082 883 1083 889 1087 891 C 1089 893 1095 893 1098 
       891 C 1100 890 1100 890 1100 891 C 1101 892 1102 893 1103 893 L 1106 893 L 1106 877 L 1106 861 L 1103 861 
       L 1100 861 L 1100 872 C 1100 882 1100 884 1098 886 C 1097 887 1095 888 1094 888 C 1093 888 1091 887 1090 
       886 C 1088 884 1088 882 1088 872 L 1088 861 L 1085 861 L 1082 861 z M 1155 861 L 1155 877 L 1155 893 L 1158 
       893 L 1161 893 L 1161 877 L 1161 861 L 1158 861 L 1155 861 z M 1210 861 C 1204 861 1202 862 1200 866 C 1198 
       870 1198 870 1201 870 C 1203 870 1204 869 1205 868 C 1207 865 1213 865 1214 868 C 1215 869 1215 871 1215 872
       C 1215 873 1215 874 1212 874 C 1203 874 1197 878 1198 885 C 1199 892 1207 895 1213 891 L 1215 889 L 1215 891
       C 1215 892 1216 893 1218 892 C 1221 892 1221 892 1221 883 C 1222 871 1221 866 1218 863 C 1216 861 1214 861 
       1210 861 z M 1272 861 L 1272 877 L 1272 893 L 1275 893 L 1278 893 L 1278 877 L 1278 861 L 1275 861 L 1272 
       861 z M 1316 861 L 1316 877 L 1316 893 L 1319 893 L 1322 893 L 1322 877 L 1322 861 L 1319 861 L 1316 861 z 
       M 1358 861 C 1352 861 1348 863 1347 867 C 1347 869 1347 870 1349 870 C 1351 870 1353 869 1353 868 C 1356 864 
       1364 866 1364 871 C 1364 873 1363 874 1360 874 C 1351 874 1346 877 1346 883 C 1346 891 1355 895 1361 891 L 
       1364 889 L 1364 891 C 1364 892 1364 893 1366 893 L 1369 893 L 1369 880 C 1369 868 1368 865 1365 862 C 1364 
       861 1361 861 1358 861 z M 1033 861 C 1030 861 1027 861 1026 862 C 1025 863 1023 865 1023 867 C 1022 870 
       1022 870 1024 870 C 1026 870 1027 869 1028 868 C 1030 865 1036 865 1037 868 C 1038 869 1038 871 1038 872 
       C 1038 873 1038 874 1034 874 C 1029 874 1023 876 1022 880 C 1018 888 1028 897 1036 891 L 1038 889 L 1038 891 
       C 1038 892 1039 893 1041 893 L 1044 893 L 1044 882 C 1044 870 1043 864 1040 862 C 1039 861 1036 861 1033 861 z 
       M 918 866 C 922 866 925 870 925 877 C 925 886 921 889 916 887 C 910 885 909 872 914 868 C 915 867 917 866 
       918 866 z M 1296 866 C 1298 866 1300 867 1301 868 C 1304 872 1304 881 1301 885 C 1298 888 1295 888 1292 885 
       C 1290 883 1290 881 1290 877 C 1290 872 1291 868 1293 867 C 1294 866 1295 866 1296 866 z M 1178 866 C 1182 
       866 1185 870 1186 874 C 1186 882 1184 887 1180 888 C 1173 889 1169 877 1173 869 C 1175 867 1176 866 1178 866 
       z M 1253 866 C 1255 866 1256 867 1257 868 C 1259 869 1259 872 1260 876 C 1260 884 1257 889 1251 888 C 1246 
       886 1244 874 1248 869 C 1250 867 1251 866 1253 866 z M 1035 878 C 1037 878 1038 879 1038 881 C 1038 886 1031 
       890 1028 887 C 1025 884 1026 881 1031 879 C 1033 879 1034 878 1035 878 z M 1213 878 C 1214 878 1215 879 1215 
       881 C 1215 884 1211 888 1208 888 C 1202 888 1202 881 1208 879 C 1210 879 1211 878 1213 878 z M 1362 878 C 
       1363 878 1363 879 1363 881 C 1361 889 1351 891 1351 884 C 1351 881 1353 880 1356 879 C 1359 878 1361 878 
       1362 878 z M 1391 884 C 1390 884 1387 887 1387 888 C 1387 890 1390 893 1391 893 C 1395 893 1397 887 1394 
       885 C 1392 884 1391 884 1391 884 z "/>
    <path fill="#6e05b5" id="path3"
       d="m 1287 765 c 2 2 5 11 3 13 -0 0 -3 0 -6 0 -5 -0 -6 -1 -6 -3 0 -3 -1 -3 -3 -1 -1 1 -2 3 -1 5 1 0 4 1 7 3 
      8 4 11 8 10 15 -0 5 -1 7 -5 10 -6 3 -14 4 -22 -0 -4 -6 -5 -7 -5 -10 0 -2 -2 -3 5 -3 8 -0 4 0 7 3 1 2 2 2 5 
      1 3 -2 1 -5 -6 -9 -8 -4 -12 -9 -10 -17 0 -5 4 -7 7 -9 4 -2 6 -2 12 -1 3 0 5 1 7 3 z m -120 13 c 8 36 11 35 
      0 35 -10 -0 -6 0 -8 -6 -2 -7 -1 -6 -7 -6 -7 0 -4 -1 -7 5 -2 7 -1 6 -7 6 -10 0 -8 2 1 -34 9 -37 5 -33 15 -33
      9 0 5 -3 14 33 z m 84 -12 c 2 3 3 9 3 22 -0 13 -0 13 -2 18 -3 6 -12 8 -17 4 -2 -1 -1 -3 -1 8 -0 12 1 9 -7 9
      -8 0 -4 5 -5 -32 -1 -37 -1 -32 7 -33 4 -0 5 0 5 1 -0 1 1 0 3 -1 2 -1 4 -2 8 -1 3 0 4 1 6 3 z m -37 16 c 0 
      20 -0 27 -7 30 -3 1 -8 1 -11 -0 -2 0 -2 -6 -3 6 -0 13 0 11 -7 11 -8 -0 -4 2 -5 -32 -0 -38 -2 -32 5 -33 11 
      -1 4 5 10 0 2 -2 9 -2 13 0 5 6 5 8 5 16 z m -145 -29 c -0 8 0 5 -6 6 -7 0 -8 -2 -7 -6 0 -4 -2 -5 6 -6 8 -0 
      8 -1 8 6 z m -21 27 c -0 38 1 33 -7 33 -9 -0 -6 4 -6 -17 0 -21 2 -23 -5 2 -6 19 -4 16 -9 15 -4 -0 -3 2 -9 
      -20 -5 -22 -4 -20 -4 0 -0 21 3 19 -5 19 -8 -0 -7 6 -6 -33 0 -39 -3 -34 9 -34 12 -0 7 -2 13 21 5 23 1 33 9 
      4 7 -29 3 -25 14 -25 11 -0 8 -4 8 33 z m 53 -15 c 1 0 3 2 5 4 2 3 3 9 1 10 -0 0 -2 0 -5 0 -5 -0 -6 0 -7 -2
      -1 -3 -4 -5 -5 -1 -1 2 1 6 6 8 4 1 10 5 11 8 2 6 0 15 -4 19 -5 4 -16 3 -21 -0 -3 -2 -3 -3 -5 -9 -2 -5 -1 -5
      6 -5 7 -0 3 1 7 5 6 1 7 -2 5 -4 -0 -0 -4 -2 -7 -4 -5 -3 -9 -5 -10 -11 -3 -12 12 -24 25 -17 z m -32 25 c 0 
      27 -0 25 -7 24 -6 -0 -7 3 -6 -24 0 -28 -1 -26 7 -25 9 0 6 -1 6 25 z m 80 -13 c -3 14 -3 14 3 14 6 0 5 2 3 
      -13 -2 -15 -2 -15 -6 -1 z m 47 -3 c -4 0 -3 2 -4 14 -0 12 -0 15 4 15 4 -0 4 -1 4 -14 0 -13 -0 -15 -4 -14 z 
      m 37 14 c -0 14 0 14 4 14 3 -0 4 -1 4 -15 0 -14 1 -16 -3 -15 -4 0 -4 1 -4 16 z" />
    <path id="path4" fill="#00ffff"
       d="m 176 686 c 2 2 4 7 3 11 -0 3 -5 7 -9 7 -4 0 -8 -4 -9 -10 -0 -3 -0 -4 2 -7 2 -2 3 -3 6 -3 2 0 4 0 6 1 z 
       m 30 120 c 2 2 4 7 3 11 -0 3 -5 7 -9 7 -4 0 -8 -4 -9 -10 -0 -3 -0 -4 2 -7 2 -2 3 -3 6 -3 2 0 4 0 6 1 z 
       M 210 678 c 0 -1 34 -29 48 -41 5 -4 8 -6 12 -10 0 -0 14 -10 2 0 l -4 4 c -4 4 -50 43 -55 46 -2 1 -2 2 -3 
       1 -0 -0 -0 -1 -0 -1 z m 16 113 c 0 -1 41 -37 57 -51 6 -5 9 -8 14 -12 0 -0 17 -12 3 1 l -5 5 c -5 5 -60 54 
       -65 58 -2 2 -3 2 -4 1 -0 -0 -0 -1 -0 -2 z" />
    <path id="path5" fill="#00ffff"
       d="m 108 314 c 2 3 2 8 0 12 -1 3 -7 5 -11 4 -4 -1 -7 -7 -6 -12 0 -3 1 -4 4 -6 2 -1 4 -2 7 -1 2 0 4 2 5 3 z 
       m 6 -104 c 2 3 2 8 0 12 -1 3 -7 5 -11 4 -4 -1 -7 -7 -6 -12 0 -3 1 -4 4 -6 2 -1 4 -2 7 -1 2 0 4 2 5 3 z 
       m 50 13 c 1 0 55 19 76 27 8 3 12 4 19 7 0 0 20 9 0 3 l -7 -2 c -7 -2 -80 -28 -87 -31 -3 -1 -3 -1 -3 -3 
       0 -1 1 -1 2 -1 z m -5 102 c 1 -0 47 -7 66 -9 7 -0 10 -1 16 -1 0 -0 18 -1 0 2 l -6 1 c -6 1 -70 10 -75 11 
       -3 0 -3 0 -3 -1 0 -1 0 -1 1 -2 z" />
    <path id="path6" fill="#00ffff"
       d="m 978 147 c 2 2 4 7 3 11 -0 3 -5 7 -9 7 -4 0 -8 -4 -9 -10 -0 -3 -0 -4 2 -7 2 -2 3 -3 6 -3 2 0 4 0 6 1 z 
       m -136 -32 c -0 1 -44 47 -62 66 -7 7 -10 10 -16 16 -0 0 -18 16 -3 -1 l 5 -6 c 6 -6 65 -69 70 -75 2 -3 3 -3 
       4 -1 0 0 1 2 0 3 z m 28 -35 c 2 2 4 7 3 11 -0 3 -5 7 -9 7 -4 0 -8 -4 -9 -10 -0 -3 -0 -4 2 -7 2 -2 3 -3 6 
       -3 2 0 4 0 6 1 z m 69 105 c -0 1 -36 35 -50 49 -5 5 -8 7 -13 12 -0 0 -15 12 -2 -1 l 4 -4 c 5 -5 52 -52 57 
       -56 2 -2 2 -2 3 -1 0 0 0 1 0 2 z" />
    <path id="path7" fill="url(#gearGradient)"
       d="m 649 203 c 24 9 24 9 41 -10 17 -20 16 -19 38 -5 22 14 15 11 5 36 -10 24 -10 24 8 43 18 19 19 19 45 16 
       26 -3 28 -3 40 20 11 24 8 25 -11 42 -20 16 -20 16 -15 42 5 26 5 26 30 35 24 9 24 9 20 45 -4 25 -6 25 -32 
       25 -26 0 -26 0 -37 24 -10 24 -10 24 7 44 17 19 17 20 1 41 -16 20 -19 18 -43 8 -24 -10 -24 -10 -46 4 -21 
       15 -21 15 -16 41 4 26 4 26 -19 35 -24 9 -25 8 -41 -12 -16 -21 -16 -21 -43 -18 -26 2 -25 3 -33 28 -8 25 -9 
       25 -35 21 -26 -3 -25 -4 -27 -31 -1 -26 -1 -26 -27 -34 -25 -7 -25 -7 -45 8 -20 16 -21 16 -42 1 -21 -15 -21 
       -17 -8 -40 13 -23 13 -23 -5 -42 -18 -18 -18 -18 -44 -13 -26 4 -25 4 -37 -19 -11 -24 -9 -26 12 -41 22 -14 
       22 -15 16 -41 -5 -25 -5 -25 -30 -34 -25 -8 -24 -8 -20 -35 3 -26 2 -27 28 -25 26 1 26 1 35 -23 9 -25 9 -24 
       -7 -44 -17 -20 -16 -24 -0 -45 16 -21 16 -20 41 -10 24 10 24 10 46 -3 22 -14 40 -26 34 -52 -5 -26 -5 -26 20 
       -34 25 -8 26 -8 41 13 15 21 15 21 41 20 26 -0 25 -0 34 -26 8 -25 8 -25 35 -21 26 4 26 4 24 31 -2 26 -2 26 22 36 z"/>
    <path fill="#1d1350" id="path8"
       d="M 546 617 C 440 616 337 535 338 417 c 0 -117 109 -201 208 -200 98 0 208 68 208 200 0 132 -102 201 -208 200 z"/>
    <!-- 6531 7560 -(2000 9000) -->
    <path fill="#748bac" id="path9"
       d="m 358 418 c -0 -98 92 -181 192 -183 99 -1 187 79 187 181 -0 101 -83 180 -187 181 C 445 597 358 516 358 418 Z 
       m 366 -1 C 724 329 655 246 550 246 446 246 371 336 371 418 c 0 81 70 168 178 166 107 -1 174 -81 174 -168 z" />
    <!-- 8516 5470 -(2000 5000) -->
    <path fill="#6e05b5" id="path10"
       d="m 696 372 c 3 2 7 10 5 12 -0 0 -3 0 -6 1 -5 0 -6 -0 -7 -2 -0 -3 -2 -3 -4 -1 -1 1 -1 3 -0 5 1 0 4 1 8 2 9 
       3 12 6 13 13 0 5 -0 7 -3 11 -6 4 -13 6 -22 3 -5 -5 -6 -6 -6 -9 -0 -2 -3 -2 5 -4 8 -1 4 0 7 2 2 2 3 2 5 0 2 
       -3 0 -5 -8 -8 -9 -3 -13 -7 -13 -15 0 -5 2 -8 6 -10 4 -3 6 -3 12 -3 3 0 5 0 8 2 z m -117 32 c 14 34 16 33 6 
       34 -10 1 -6 1 -9 -5 -3 -7 -2 -5 -8 -4 -7 1 -5 -0 -6 6 -1 7 -0 6 -6 7 -10 2 -8 3 -4 -34 3 -38 0 -34 10 -35 
       9 -1 4 -3 19 30 z m 81 -25 c 3 3 5 8 6 21 1 13 1 13 0 18 -1 7 -11 10 -16 7 -3 -1 -1 -2 -0 9 1 12 2 9 -5 10 
       -7 1 -3 5 -11 -31 -7 -37 -6 -32 2 -33 4 -0 5 -0 5 0 0 1 1 0 3 -1 2 -2 4 -2 8 -2 3 0 5 0 6 2 z m -34 21 c 3 
       20 3 26 -2 30 -3 2 -8 3 -11 1 -2 1 -3 -5 -2 7 1 13 2 11 -5 12 -8 0 -3 2 -10 -31 -6 -37 -7 -32 0 -34 10 -3 5 
       4 10 -0 2 -3 9 -3 13 -1 6 5 6 7 7 15 z m -147 -5 c 1 8 1 4 -5 6 -6 1 -8 -0 -8 -5 -0 -4 -2 -5 5 -7 8 -1 8 
       -3 9 5 z m -16 30 c 5 37 6 33 -2 34 -9 0 -5 4 -9 -16 -3 -21 -0 -23 -5 3 -3 20 -1 16 -6 17 -4 0 -3 3 -12 -18 
       -8 -21 -7 -19 -4 1 3 21 6 19 -2 20 -8 1 -5 7 -12 -31 -6 -39 -8 -33 3 -35 12 -2 6 -3 16 18 9 22 7 33 10 2 2 
       -30 -0 -25 10 -27 11 -2 8 -5 13 31 z m 50 -24 c 1 0 4 2 5 3 2 3 4 9 3 10 -0 0 -2 1 -5 1 -5 0 -6 1 -7 -0 -1 
       -3 -4 -4 -5 -0 -0 3 2 6 7 7 5 0 11 3 12 6 3 6 2 15 -1 19 -4 5 -15 6 -21 2 -3 -1 -4 -3 -7 -8 -2 -5 -2 -4 5 
       -6 7 -1 3 1 7 4 6 0 7 -3 4 -5 -1 -0 -4 -2 -7 -3 -6 -2 -10 -4 -12 -10 -5 -12 8 -25 22 -21 z m -27 30 c 4 26 
       3 24 -3 25 -6 0 -6 4 -10 -23 -3 -27 -5 -25 3 -26 9 -0 5 -2 10 24 z m 76 -25 c -1 15 -1 15 5 13 6 -0 6 1 1 
       -13 -5 -15 -5 -15 -6 -0 z m 46 -10 c -4 0 -3 2 -1 14 1 11 2 15 6 14 4 -1 3 -2 1 -15 -1 -12 -2 -14 -6 -14 z 
       m 38 8 c 2 14 2 14 6 13 3 -0 3 -1 1 -15 -2 -13 -1 -16 -6 -15 -4 0 -3 2 -1 17 z" />
    <!-- 4913 6068 -(2000 5000) -->
    <path fill="#00ffff" id="path11"
       d="m 524 272 c -2 0 -4 1 -4 3 -0 1 2 3 4 3 2 0 4 -1 4 -3 0 -1 -1 -3 -4 -3 z m 21 -1 c -2 0 -4 1 -4 2 -0 1 
       2 3 4 3 2 0 4 -0 4 -2 0 -1 -1 -3 -4 -3 z m -41 5 c -2 0 -4 1 -4 3 -0 2 2 3 4 3 2 0 4 -1 4 -3 0 -1 -1 -3 -4 
       -3 z m 62 -5 c -2 0 -4 1 -4 3 -0 1 2 3 4 3 2 0 4 -1 4 -3 0 -1 -1 -3 -4 -3 z M 489 281 c -2 0 -4 1 -4 2 -0 
       1 2 3 4 3 2 0 4 -0 4 -2 0 -1 -1 -3 -4 -3 z m 97 -7 c -2 0 -4 1 -4 3 -0 1 2 3 4 3 2 0 4 -1 4 -3 0 -1 -1 -3 
       -4 -3 z m -113 14 c -2 0 -4 1 -4 2 -0 1 2 3 4 3 2 0 4 -1 4 -3 0 -1 -1 -3 -4 -3 z m 133 -7 c -2 0 -4 1 -4 
       2 -0 1 2 3 4 3 2 0 4 -0 4 -2 0 -1 -1 -3 -4 -3 z m -147 15 c -2 0 -4 1 -4 2 -0 1 2 3 4 3 2 0 4 -1 4 -3 0 
       -1 -1 -3 -4 -3 z m 164 -8 c -2 0 -4 1 -4 2 -0 1 2 3 4 3 2 0 4 -1 4 -3 0 -1 -1 -3 -4 -3 z m -177 17 c -2 0 
       -4 1 -4 2 -0 1 2 3 4 3 2 0 4 -1 4 -3 0 -1 -1 -3 -4 -3 z m 195 -7 c -2 0 -4 1 -4 2 -0 1 2 3 4 3 2 0 4 -1 4 
       -3 0 -1 -1 -3 -4 -3 z m -206 16 c -2 0 -4 1 -4 2 -0 1 2 3 4 3 2 0 4 -1 4 -3 0 -1 -1 -3 -4 -3 z m 221 -4 c 
       -2 0 -4 1 -4 2 -0 1 2 3 4 3 2 0 4 -1 4 -3 0 -1 -1 -3 -4 -3 z m -230 16 c -2 0 -4 1 -4 2 -0 1 2 3 4 3 2 0 4 
       -1 4 -3 0 -1 -1 -3 -4 -3 z m 245 -3 c -2 0 -4 1 -4 2 -0 1 2 3 4 3 2 0 4 -1 4 -3 0 -1 -1 -3 -4 -3 z m -255 
       15 c -2 0 -4 1 -4 2 -0 1 2 3 4 3 2 0 4 -1 4 -3 0 -1 -1 -3 -4 -3 z m -6 12 c -2 0 -4 1 -4 3 -0 2 2 3 4 3 2 
       0 4 -1 4 -3 0 -1 -1 -3 -4 -3 z m 276 -19 c -1 0 -3 0 -8 2 -11 4 -11 4 -0 9 11 4 10 4 10 -4 0 -7 0 -7 -1 -7 
       z m -280 34 c -2 0 -4 1 -4 3 -0 2 2 3 4 3 2 0 4 -1 4 -3 0 -1 -1 -3 -4 -3 z m 299 74 c -2 0 -4 1 -4 2 -0 1 
       2 3 4 3 2 0 4 -1 4 -3 0 -1 -1 -2 -4 -2 z m -289 54 c 0 11 0 10 9 5 9 -5 11 -5 0 -10 -10 -5 -10 -5 -10 5 z 
       m 285 -38 c -2 0 -3 1 -3 3 0 1 3 2 5 2 2 -0 3 -1 3 -3 -0 -1 -2 -2 -5 -1 z m -5 14 c -2 0 -3 2 -3 4 0 2 3 3 
       5 2 2 -0 3 -2 3 -4 -0 -2 -2 -3 -5 -2 z M 434 506 c -2 0 -4 1 -4 3 -0 2 2 3 4 3 2 0 4 -1 4 -3 0 -2 -1 -3 -4 
       -3 z m 253 -22 c -2 0 -3 2 -3 4 0 1 3 2 5 2 2 -0 3 -2 3 -4 -0 -1 -2 -2 -5 -2 z m -244 32 c -2 0 -4 1 -4 2 
       -0 1 2 3 4 3 2 0 4 -1 4 -3 0 -1 -1 -3 -4 -3 z M 677 498 c -2 0 -3 1 -3 3 0 1 3 2 5 2 2 -0 3 -1 3 -3 -0 -1 
       -2 -2 -5 -1 z m -223 27 c -2 0 -4 1 -4 2 -0 1 2 3 4 3 2 0 4 -1 4 -3 0 -1 -1 -3 -4 -3 z m 211 -13 c -2 0 -3 
       1 -3 3 0 1 3 2 5 2 2 -0 3 -1 3 -3 -0 -1 -2 -2 -5 -1 z m -197 22 c -2 0 -3 1 -3 3 0 1 3 2 5 2 2 -0 3 -1 3 -3 
       -0 -1 -2 -2 -5 -1 z m 16 8 c -2 0 -4 1 -4 2 -0 1 2 3 4 3 2 0 4 -1 4 -3 0 -1 -1 -3 -4 -3 z m 168 -19 c -2 0 
       -3 1 -3 3 0 1 3 2 5 2 2 -0 3 -1 3 -3 -0 -1 -2 -2 -4 -2 z m -149 26 c -2 0 -4 1 -4 2 -0 1 2 3 4 3 2 0 4 -1 4 
       -3 0 -1 -1 -3 -4 -3 z m 133 -15 c -2 0 -3 1 -3 3 0 1 3 2 5 2 2 -0 3 -1 3 -3 -0 -1 -2 -2 -5 -1 z M 523 558 c 
       -2 0 -4 1 -4 2 -0 1 2 3 4 3 2 0 4 -1 4 -3 0 -1 -1 -3 -4 -3 z m 96 -13 c -2 0 -3 2 -2 4 0 1 3 1 5 1 2 -0 3 
       -2 2 -4 -0 -1 -3 -2 -5 -1 z m -73 14 c -2 0 -4 1 -4 2 -0 1 2 3 4 3 2 0 4 -1 4 -3 0 -1 -1 -3 -4 -3 z m 55 
       -7 c -2 0 -3 2 -2 4 0 1 3 1 5 1 2 -0 3 -2 2 -4 -0 -1 -3 -2 -5 -1 z m -36 7 c -2 0 -3 1 -3 3 0 1 2 2 4 2 2 
       -0 3 -1 3 -3 -0 -1 -2 -2 -4 -2 z m 19 -2 c -2 0 -3 1 -3 3 0 1 2 2 4 2 2 -0 3 -1 3 -4 -0 -0 -2 -1 -4 -1 z" />
  </g>
</svg>
