<?xml version="1.0" standalone="no"?>
<svg version="1.0" xmlns="http://www.w3.org/2000/svg" xmlns:svg="http://www.w3.org/2000/svg"
 width="512px" height="512px" viewBox="0 0 10000 10000"
 preserveAspectRatio="xMidYMid meet">

 <defs>
 <linearGradient id="gearGradient" x1="0%" y1="0%" x2="100%" y2="100%">
 <stop offset="0%" style="stop-color:#0A2A82;stop-opacity:1" />
 <stop offset="100%" style="stop-color:#8A2BE2;stop-opacity:1" />
 </linearGradient>
 </defs>

 <g stroke="none">
 <path fill="#00003D" id="path1"
 d="M 0 0 0 10000 10000 10000 10000 0 Z"
 />

 <!-- 7724 2231 -(2000 9000) -->
 <path id="path2" fill="url(#gearGradient)"
 d="m 6000 2000 c 295 126 292 126 498 -137 206 -265 193 -256 462 -71 268 185 191 151 70 475 -120 
 323 -125 313 96 561 222 248 233 257 549 212 315 -44 346 -45 485 267 138 314 107 334 -143 551 
 -250 216 -244 215 -182 556 62 340 62 340 360 466 297 124 298 128 240 589 -55 337 -75 335 -392 
 334 -317 0 -319 5 -444 322 -123 317 -121 319 88 579 211 258 212 264 14 538 -197 273 -229 246 
 -520 105 -290 -139 -296 -140 -558 55 -261 196 -255 202 -199 546 55 343 56 340 -238 465 -296 123 
 -299 114 -492 -161 -192 -277 -199 -275 -517 -241 -317 33 -305 41 -402 373 -97 331 -111 333 -425 
 284 -313 -49 -306 -64 -327 -413 -21 -347 -22 -348 -326 -453 -303 -104 -300 -95 -548 114 -247 210 
 -253 220 -511 19 -258 -201 -258 -222 -100 -525 156 -302 158 -306 -65 -551 -225 -245 -216 -238 
 -530 -181 -312 57 -310 53 -446 -258 -134 -313 -115 -348 150 -542 265 -192 266 -205 199 -546 -66 
 -339 -66 -337 -369 -445 -303 -107 -291 -115 -247 -458 43 -343 30 -364 345 -339 315 24 314 25 424 
 -300 110 -327 117 -318 -92 -579 -211 -261 -202 -317 -2 -594 198 -277 202 -273 494 -134 292 139 
 288 143 553 -47 265 -191 478 -346 412 -688 -66 -340 -64 -342 244 -451 308 -108 312 -105 497 176 
 184 282 186 280 499 268 313 -11 307 -13 414 -344 106 -330 105 -335 419 -281 312 53 318 57 294 
 405 -24 348 -25 351 269 478 z" />
 <!-- 6531 7560 -(2000 9000) -->
 <path fill="#1D1350" id="path3"
 d="m 4900 7400 C 3632 7388 2410 6325 2411 4789 c 0 -1536 1309 -2623 2489 -2611 1179 12 2489 887 
 2489 2611 0 1723 -1220 2623 -2489 2611 z"
 />
 <!-- 6531 7560 -(2000 9000) -->
 <path fill="#748BAC" id="path4"
 d="m 2650 4800 C 2642 3516 3761 2431 4954 2412 6147 2393 7196 3445 7190 4776 7185 6105 6193 7134 
 4944 7139 3695 7142 2659 6085 2651 4800 z m 4378 -19 C 7024 3648 6200 2569 4951 2563 3702 2558 
 2808 3740 2814 4807 c 5 1065 841 2195 2132 2170 1290 -25 2087 -1064 2082 -2196 z"

/>
 <!-- 8516 5470 -(2000 5000) -->
 <path fill="#6E05B5" id="path5"
 d="m 6700 4200 c 37 29 86 143 71 160 -3 5 -40 13 -77 18 -66 5 -82 -5 -88 -36 -6 -42 -30 -45 -49 
 -14 -13 24 -17 52 -5 74 20 9 51 17 99 35 108 42 151 91 157 178 4 74 -1 94 -41 145 -74 57 -160 
 83 -263 44 -68 -68 -79 -87 -83 -121 -3 -28 -40 -34 60 -55 100 -19 59 1 93 36 28 32 39 32 71 8 
 34 -44 4 -72 -98 -112 -112 -44 -165 -97 -162 -202 0 -71 33 -106 74 -143 49 -43 74 -44 145 -42 
 47 0 70 5 97 28 z m -1399 424 c 171 452 201 434 75 456 -124 20 -72 25 -111 -69 -39 -96 -25 -76 
 -105 -61 -94 17 -61 -12 -75 89 -13 102 -1 82 -81 102 -124 29 -98 52 -52 -448 46 -500 4 -447 
 120 -467 114 -19 58 -51 231 400 z m 972 -335 c 42 42 63 113 83 277 18 178 23 174 5 240 -23 
 94 -132 141 -201 96 -36 -18 -22 -37 -4 119 16 157 33 119 -68 142 -94 20 -44 77 -132 -412 -85 
 -483 -83 -419 25 -441 56 -10 69 -6 69 10 0 18 13 5 42 -22 30 -30 48 -37 96 -36 40 0 61 8 82 27 z 
 m -407 284 c 39 263 41 351 -26 404 -38 29 -98 41 -136 17 -30 14 -47 -74 -27 96 20 171 29 153 -71 
 163 -102 10 -46 35 -121 -412 -81 -491 -88 -418 0 -447 128 -41 64 56 126 -10 26 -40 110 -48 163 
 -16 76 67 78 99 95 201 z m -1767 -77 c 13 116 17 65 -64 91 -82 25 -102 -9 -107 -71 -4 -60 -35 -67 
 60 -92 96 -24 97 -43 111 72 z m -199 397 c 68 494 83 432 -24 445 -108 12 -69 65 -111 -216 -41 
 -283 -10 -303 -61 48 -40 270 -19 220 -77 224 -57 4 -37 40 -145 -244 -107 -284 -95 -257 -55 18 39 
 277 74 248 -30 264 -105 14 -71 95 -144 -417 -72 -513 -106 -431 42 -463 149 -32 83 -48 194 245 111 
 294 86 432 121 32 33 -398 -9 -329 129 -357 138 -27 96 -75 164 417 z m 602 -315 c 20 6 51 30 68 50 
 31 41 57 122 42 137 -3 5 -31 14 -69 19 -66 5 -78 22 -95 -13 -19 -44 -59 -59 -70 -9 -8 40 35 81 93 
 94 61 11 132 49 150 84 41 80 35 197 -12 257 -55 71 -182 82 -259 37 -41 -25 -54 -42 -88 -108 -34 
 -66 -26 -65 63 -84 89 -18 41 18 95 60 74 3 84 -47 55 -71 -12 -8 -55 -29 -95 -43 -75 -28 -121 -57 
 -152 -131 -62 -160 107 -338 270 -280 z m -329 397 c 55 349 41 323 -37 330 -80 5 -79 61 -126 -302 
 -46 -365 -69 -332 39 -343 109 -10 69 -33 124 315 z m 920 -335 c -13 199 -13 196 64 182 78 -13 74 
 18 12 -179 -61 -199 -64 -200 -77 -1 z m 559 -142 c -48 11 -42 36 -21 192 21 155 30 206 78 188 54 
 -20 45 -27 22 -197 -23 -169 -30 -194 -79 -183 z m 466 114 c 26 191 29 185 75 176 45 -8 46 -24 19 
 -206 -26 -181 -16 -210 -73 -196 -56 13 -47 33 -21 225 z"
/>
 <!-- 4913 6068 -(2000 5000) -->
 <path fill="#00FFFF" id="path6"
 d="m 4640 2897 c -31 -0 -50 17 -51 40 -1 24 26 41 50 41 28 0 53 -14 53 -40 0 -23 -22 -41 -54 -41 z 
 m 255 -18 c -31 -0 -50 15 -51 39 -1 24 26 40 50 40 28 0 53 -13 53 -39 0 -23 -22 -40 -54 -40 z 
 m -492 74 c -31 -0 -50 15 -51 42 -1 27 26 45 50 46 28 0 53 -15 53 -44 0 -26 -22 -43 -54 -44 z 
 m 742 -67 c -31 -0 -52 17 -52 40 -1 24 27 41 53 41 28 0 53 -14 53 -40 0 -23 -22 -41 -54 -41 z 
 m -927 138 c -31 -0 -53 15 -53 39 -1 24 28 40 54 40 28 0 50 -13 51 -39 0 -23 -20 -40 -50 -40 z 
 m 1170 -103 c -31 -0 -50 16 -51 40 -1 24 26 41 50 41 28 0 53 -14 53 -40 0 -23 -22 -41 -54 -41 z 
 m -1362 186 c -31 -0 -51 15 -52 39 -1 24 27 41 53 41 28 0 51 -14 52 -40 0 -23 -21 -40 -53 -40 z 
 m 1599 -99 c -31 -0 -54 15 -54 39 -1 24 28 40 54 40 28 0 50 -13 51 -39 0 -23 -20 -40 -50 -40 z 
 m -1764 206 c -31 -0 -51 15 -52 39 -1 24 27 41 51 41 28 0 51 -14 52 -40 0 -23 -21 -40 -53 -40 z 
 m 1966 -106 c -31 -0 -51 15 -52 39 -1 24 27 41 51 41 28 0 51 -14 52 -40 0 -23 -21 -40 -53 -40 z 
 m -2125 230 c -31 -0 -51 15 -52 39 -1 24 27 41 53 41 28 0 51 -14 52 -40 0 -23 -21 -40 -52 -40 z 
 m 2334 -97 c -31 -0 -51 15 -52 39 -1 24 27 41 51 41 28 0 51 -14 52 -40 0 -23 -21 -40 -52 -40 z 
 m -2467 217 c -31 -0 -51 15 -52 39 -1 24 27 41 51 41 28 0 51 -14 52 -40 0 -23 -21 -40 -52 -40 z 
 m 2652 -64 c -31 -0 -51 15 -52 39 -1 24 27 41 51 41 28 0 51 -14 52 -40 0 -23 -21 -40 -52 -40 z 
 m -2760 215 c -31 -0 -51 15 -52 39 -1 24 27 41 51 41 28 0 51 -14 52 -40 0 -23 -21 -40 -52 -40 z 
 m 2937 -40 c -31 -0 -51 15 -52 39 -1 24 27 41 53 41 28 0 51 -14 52 -40 0 -23 -21 -40 -53 -40 z 
 m -3048 203 c -31 -0 -51 15 -52 39 -1 24 27 41 51 41 28 0 51 -14 52 -40 0 -23 -21 -40 -53 -40 z 
 m -83 158 c -31 -0 -51 17 -52 43 -1 27 27 45 51 46 28 0 51 -15 52 -44 0 -26 -21 -44 -52 -45 z 
 m 3300 -250 c -14 -0 -45 12 -103 39 -140 62 -140 65 -5 130 134 63 123 60 125 -63 1 -92 6 -104 -17 -104 z 
 m -3350 450 c -31 -0 -51 17 -52 44 -1 28 27 47 51 47 28 0 51 -16 52 -46 0 -25 -21 -46 -52 -46 z 
 M 6800 5100 c -31 -0 -51 14 -52 38 -1 24 27 42 51 42 28 0 51 -15 52 -41 0 -23 -21 -39 -52 -39 z 
 m -3462 707 c 10 149 4 142 115 69 111 -72 136 -69 6 -143 -130 -74 -131 -74 -121 74 z 
 m 3414 -507 c -30 6 -45 25 -39 49 4 23 37 32 61 27 27 -5 45 -25 39 -50 -4 -22 -31 -33 -60 -26 z 
 m -71 185 c -30 7 -45 32 -39 63 4 30 37 41 60 34 27 -6 45 -32 39 -64 -4 -29 -31 -42 -60 -33 z 
 m -3121 471 c -31 -0 -51 17 -52 44 -1 28 27 47 51 47 28 0 51 -16 52 -46 0 -27 -21 -46 -53 -46 z 
 m 3028 -292 c -30 6 -45 28 -39 54 4 26 37 36 60 30 27 -5 45 -28 39 -56 -4 -25 -29 -36 -60 -29 z 
 m -2919 418 c -31 -0 -51 15 -52 39 -1 24 27 41 51 41 28 0 51 -14 52 -40 0 -23 -21 -40 -52 -40 z 
 m 2803 -232 c -30 6 -45 25 -39 49 4 23 37 32 60 27 27 -5 45 -25 39 -50 -4 -22 -31 -33 -60 -26 z 
 m -2665 361 c -31 -0 -51 15 -52 39 -1 24 27 41 53 41 28 0 51 -14 52 -40 0 -23 -21 -40 -53 -40 z 
 m 2527 -178 c -30 6 -45 25 -39 49 4 23 37 32 60 27 27 -5 45 -25 39 -50 -4 -22 -31 -33 -60 -26 z 
 m -2362 299 c -30 6 -45 25 -39 49 4 23 37 32 60 27 27 -5 45 -25 39 -50 -4 -22 -31 -33 -60 -26 z 
 m 197 107 c -31 -0 -51 15 -52 39 -1 24 27 41 51 41 28 0 51 -14 52 -40 0 -23 -21 -40 -52 -40 z 
 m 2011 -260 c -30 6 -45 25 -39 49 4 23 37 32 61 27 27 -5 44 -24 38 -49 -4 -22 -29 -33 -59 -27 z 
 m -1786 349 c -31 -0 -51 15 -52 39 -1 24 27 41 51 41 28 0 51 -14 52 -40 0 -23 -21 -40 -52 -40 z 
 m 1600 -200 c -30 6 -45 25 -39 49 4 23 37 32 60 27 27 -5 45 -25 39 -50 -4 -22 -31 -33 -60 -26 z 
 m -1362 300 c -31 -0 -51 15 -52 39 -1 24 27 41 53 41 28 0 51 -14 52 -40 0 -23 -21 -40 -53 -40 z 
 m 1151 -172 c -28 11 -39 33 -29 55 9 22 42 26 65 17 25 -10 40 -32 29 -56 -10 -21 -36 -27 -65 -16 z 
 m -878 193 c -31 -0 -51 15 -52 39 -1 24 27 41 53 41 28 0 51 -14 52 -40 0 -23 -21 -40 -53 -40 z 
 m 667 -101 c -28 11 -39 33 -29 55 9 22 42 26 65 17 25 -10 40 -32 29 -56 -10 -21 -36 -27 -65 -16 z 
 m -434 97 c -30 5 -46 24 -43 47 2 23 35 34 59 30 27 -4 47 -23 43 -48 -3 -22 -28 -34 -59 -29 z 
 m 235 -36 c -30 5 -46 24 -43 47 2 23 35 34 59 30 27 -4 47 -23 41 -57 -1 -12 -26 -25 -57 -19 z"

 />
 </g>
</svg>
